<?xml version="1.0" encoding="UTF-8" standalone="no"?>
<svg
   xmlns:dc="http://purl.org/dc/elements/1.1/"
   xmlns:cc="http://creativecommons.org/ns#"
   xmlns:rdf="http://www.w3.org/1999/02/22-rdf-syntax-ns#"
   xmlns:svg="http://www.w3.org/2000/svg"
   xmlns="http://www.w3.org/2000/svg"
   xmlns:xlink="http://www.w3.org/1999/xlink"
   xmlns:sodipodi="http://sodipodi.sourceforge.net/DTD/sodipodi-0.dtd"
   xmlns:inkscape="http://www.inkscape.org/namespaces/inkscape"
   width="1024"
   height="1024"
   viewBox="0 0 270.93333 270.93334"
   version="1.1"
   id="svg8"
   inkscape:version="1.0.1 (3bc2e813f5, 2020-09-07)"
   sodipodi:docname="trash_panda.svg">
  <defs
     id="defs2">
    <inkscape:path-effect
       effect="bspline"
       id="path-effect13161"
       is_visible="true"
       lpeversion="1"
       weight="33.333333"
       steps="2"
       helper_size="0"
       apply_no_weight="true"
       apply_with_weight="true"
       only_selected="false" />
    <inkscape:path-effect
       effect="bspline"
       id="path-effect13142"
       is_visible="true"
       lpeversion="1"
       weight="33.333333"
       steps="2"
       helper_size="0"
       apply_no_weight="true"
       apply_with_weight="true"
       only_selected="false" />
    <inkscape:path-effect
       effect="bspline"
       id="path-effect13104"
       is_visible="true"
       lpeversion="1"
       weight="33.333333"
       steps="2"
       helper_size="0"
       apply_no_weight="true"
       apply_with_weight="true"
       only_selected="false" />
    <inkscape:path-effect
       effect="bspline"
       id="path-effect13100"
       is_visible="true"
       lpeversion="1"
       weight="33.333333"
       steps="2"
       helper_size="0"
       apply_no_weight="true"
       apply_with_weight="true"
       only_selected="false" />
    <inkscape:path-effect
       effect="bspline"
       id="path-effect13081"
       is_visible="true"
       lpeversion="1"
       weight="33.333333"
       steps="2"
       helper_size="0"
       apply_no_weight="true"
       apply_with_weight="true"
       only_selected="false" />
    <inkscape:path-effect
       effect="bspline"
       id="path-effect13077"
       is_visible="true"
       lpeversion="1"
       weight="33.333333"
       steps="2"
       helper_size="0"
       apply_no_weight="true"
       apply_with_weight="true"
       only_selected="false" />
    <inkscape:path-effect
       effect="bspline"
       id="path-effect13058"
       is_visible="true"
       lpeversion="1"
       weight="33.333333"
       steps="2"
       helper_size="0"
       apply_no_weight="true"
       apply_with_weight="true"
       only_selected="false" />
    <inkscape:path-effect
       effect="bspline"
       id="path-effect13053"
       is_visible="true"
       lpeversion="1"
       weight="33.333333"
       steps="2"
       helper_size="0"
       apply_no_weight="true"
       apply_with_weight="true"
       only_selected="false" />
    <inkscape:path-effect
       effect="bspline"
       id="path-effect13051"
       is_visible="true"
       lpeversion="1"
       weight="33.333333"
       steps="2"
       helper_size="0"
       apply_no_weight="true"
       apply_with_weight="true"
       only_selected="false" />
    <inkscape:path-effect
       effect="bspline"
       id="path-effect13049"
       is_visible="true"
       lpeversion="1"
       weight="33.333333"
       steps="2"
       helper_size="0"
       apply_no_weight="true"
       apply_with_weight="true"
       only_selected="false" />
    <inkscape:path-effect
       effect="bspline"
       id="path-effect13020"
       is_visible="true"
       lpeversion="1"
       weight="33.333333"
       steps="2"
       helper_size="0"
       apply_no_weight="true"
       apply_with_weight="true"
       only_selected="false" />
    <inkscape:path-effect
       effect="bspline"
       id="path-effect13001"
       is_visible="true"
       lpeversion="1"
       weight="33.333333"
       steps="2"
       helper_size="0"
       apply_no_weight="true"
       apply_with_weight="true"
       only_selected="false" />
    <inkscape:path-effect
       effect="bspline"
       id="path-effect12982"
       is_visible="true"
       lpeversion="1"
       weight="33.333333"
       steps="2"
       helper_size="0"
       apply_no_weight="true"
       apply_with_weight="true"
       only_selected="false" />
    <inkscape:path-effect
       effect="bspline"
       id="path-effect12978"
       is_visible="true"
       lpeversion="1"
       weight="33.333333"
       steps="2"
       helper_size="0"
       apply_no_weight="true"
       apply_with_weight="true"
       only_selected="false" />
    <inkscape:path-effect
       effect="bspline"
       id="path-effect12906"
       is_visible="true"
       lpeversion="1"
       weight="33.333333"
       steps="2"
       helper_size="0"
       apply_no_weight="true"
       apply_with_weight="true"
       only_selected="false" />
    <inkscape:path-effect
       effect="bspline"
       id="path-effect12887"
       is_visible="true"
       lpeversion="1"
       weight="33.333333"
       steps="2"
       helper_size="0"
       apply_no_weight="true"
       apply_with_weight="true"
       only_selected="false" />
    <linearGradient
       inkscape:collect="always"
       id="linearGradient12777">
      <stop
         style="stop-color:#ffffff;stop-opacity:1;"
         offset="0"
         id="stop12773" />
      <stop
         style="stop-color:#e3e3e3;stop-opacity:1"
         offset="1"
         id="stop12775" />
    </linearGradient>
    <linearGradient
       inkscape:collect="always"
       id="linearGradient12769">
      <stop
         style="stop-color:#00c4ff;stop-opacity:1"
         offset="0"
         id="stop12765" />
      <stop
         style="stop-color:#086682;stop-opacity:1"
         offset="1"
         id="stop12767" />
    </linearGradient>
    <inkscape:path-effect
       effect="bspline"
       id="path-effect1202"
       is_visible="true"
       lpeversion="1"
       weight="33.333333"
       steps="2"
       helper_size="0"
       apply_no_weight="true"
       apply_with_weight="true"
       only_selected="false" />
    <inkscape:path-effect
       effect="bspline"
       id="path-effect1183"
       is_visible="true"
       lpeversion="1"
       weight="33.333333"
       steps="2"
       helper_size="0"
       apply_no_weight="true"
       apply_with_weight="true"
       only_selected="false" />
    <inkscape:path-effect
       effect="bspline"
       id="path-effect1164"
       is_visible="true"
       lpeversion="1"
       weight="33.333333"
       steps="2"
       helper_size="0"
       apply_no_weight="true"
       apply_with_weight="true"
       only_selected="false" />
    <inkscape:path-effect
       effect="bspline"
       id="path-effect1145"
       is_visible="true"
       lpeversion="1"
       weight="33.333333"
       steps="2"
       helper_size="0"
       apply_no_weight="true"
       apply_with_weight="true"
       only_selected="false" />
    <inkscape:path-effect
       effect="bspline"
       id="path-effect1125"
       is_visible="true"
       lpeversion="1"
       weight="33.333333"
       steps="2"
       helper_size="0"
       apply_no_weight="true"
       apply_with_weight="true"
       only_selected="false" />
    <inkscape:path-effect
       effect="bspline"
       id="path-effect1106"
       is_visible="true"
       lpeversion="1"
       weight="33.333333"
       steps="2"
       helper_size="0"
       apply_no_weight="true"
       apply_with_weight="true"
       only_selected="false" />
    <inkscape:path-effect
       effect="bspline"
       id="path-effect1069"
       is_visible="true"
       lpeversion="1"
       weight="33.333333"
       steps="2"
       helper_size="0"
       apply_no_weight="true"
       apply_with_weight="true"
       only_selected="false" />
    <inkscape:path-effect
       effect="bspline"
       id="path-effect1040"
       is_visible="true"
       lpeversion="1"
       weight="33.333333"
       steps="2"
       helper_size="0"
       apply_no_weight="true"
       apply_with_weight="true"
       only_selected="false" />
    <inkscape:path-effect
       effect="bspline"
       id="path-effect1021"
       is_visible="true"
       lpeversion="1"
       weight="33.333333"
       steps="2"
       helper_size="0"
       apply_no_weight="true"
       apply_with_weight="true"
       only_selected="false" />
    <inkscape:path-effect
       effect="bspline"
       id="path-effect1002"
       is_visible="true"
       lpeversion="1"
       weight="33.333333"
       steps="2"
       helper_size="0"
       apply_no_weight="true"
       apply_with_weight="true"
       only_selected="false" />
    <inkscape:path-effect
       effect="bspline"
       id="path-effect982"
       is_visible="true"
       lpeversion="1"
       weight="33.333333"
       steps="2"
       helper_size="0"
       apply_no_weight="true"
       apply_with_weight="true"
       only_selected="false" />
    <inkscape:path-effect
       effect="bspline"
       id="path-effect978"
       is_visible="true"
       lpeversion="1"
       weight="33.333333"
       steps="2"
       helper_size="0"
       apply_no_weight="true"
       apply_with_weight="true"
       only_selected="false" />
    <inkscape:path-effect
       effect="powerstroke"
       id="path-effect970"
       is_visible="true"
       lpeversion="1"
       offset_points="3,0.1322915"
       sort_points="true"
       interpolator_type="CubicBezierJohan"
       interpolator_beta="0.2"
       start_linecap_type="zerowidth"
       linejoin_type="extrp_arc"
       miter_limit="4"
       scale_width="1"
       end_linecap_type="zerowidth" />
    <inkscape:path-effect
       effect="powerstroke"
       id="path-effect964"
       is_visible="true"
       lpeversion="1"
       offset_points="0,0.1322915"
       sort_points="true"
       interpolator_type="CubicBezierJohan"
       interpolator_beta="0.2"
       start_linecap_type="zerowidth"
       linejoin_type="extrp_arc"
       miter_limit="4"
       scale_width="1"
       end_linecap_type="zerowidth" />
    <inkscape:path-effect
       effect="skeletal"
       id="path-effect958"
       is_visible="true"
       lpeversion="1"
       pattern="M 0,5 C 0,2.24 2.24,0 5,0 7.76,0 10,2.24 10,5 10,7.76 7.76,10 5,10 2.24,10 0,7.76 0,5 Z"
       copytype="single_stretched"
       prop_scale="1"
       scale_y_rel="false"
       spacing="0"
       normal_offset="0"
       tang_offset="0"
       prop_units="false"
       vertical_pattern="false"
       hide_knot="false"
       fuse_tolerance="0" />
    <inkscape:path-effect
       effect="bspline"
       id="path-effect940"
       is_visible="true"
       lpeversion="1"
       weight="33.333333"
       steps="2"
       helper_size="0"
       apply_no_weight="true"
       apply_with_weight="true"
       only_selected="false" />
    <inkscape:path-effect
       effect="bspline"
       id="path-effect936"
       is_visible="true"
       lpeversion="1"
       weight="33.333333"
       steps="2"
       helper_size="0"
       apply_no_weight="true"
       apply_with_weight="true"
       only_selected="false" />
    <inkscape:path-effect
       effect="bspline"
       id="path-effect932"
       is_visible="true"
       lpeversion="1"
       weight="33.333333"
       steps="2"
       helper_size="0"
       apply_no_weight="true"
       apply_with_weight="true"
       only_selected="false" />
    <inkscape:path-effect
       effect="bspline"
       id="path-effect930"
       is_visible="true"
       lpeversion="1"
       weight="33.333333"
       steps="2"
       helper_size="0"
       apply_no_weight="true"
       apply_with_weight="true"
       only_selected="false" />
    <inkscape:path-effect
       effect="bspline"
       id="path-effect928"
       is_visible="true"
       lpeversion="1"
       weight="33.333333"
       steps="2"
       helper_size="0"
       apply_no_weight="true"
       apply_with_weight="true"
       only_selected="false" />
    <inkscape:path-effect
       effect="bspline"
       id="path-effect899"
       is_visible="true"
       lpeversion="1"
       weight="33.333333"
       steps="2"
       helper_size="0"
       apply_no_weight="true"
       apply_with_weight="true"
       only_selected="false" />
    <inkscape:path-effect
       effect="bspline"
       id="path-effect891"
       is_visible="true"
       lpeversion="1"
       weight="33.333333"
       steps="2"
       helper_size="0"
       apply_no_weight="true"
       apply_with_weight="true"
       only_selected="false" />
    <inkscape:path-effect
       effect="bspline"
       id="path-effect865"
       is_visible="true"
       lpeversion="1"
       weight="33.333333"
       steps="2"
       helper_size="0"
       apply_no_weight="true"
       apply_with_weight="true"
       only_selected="false" />
    <linearGradient
       inkscape:collect="always"
       xlink:href="#linearGradient12769"
       id="linearGradient12771"
       x1="94.156822"
       y1="101.64893"
       x2="95.380966"
       y2="117.55817"
       gradientUnits="userSpaceOnUse"
       gradientTransform="matrix(1.0338691,0,0,1.0338691,-5.5814538,18.513337)" />
    <linearGradient
       inkscape:collect="always"
       xlink:href="#linearGradient12777"
       id="linearGradient12779"
       x1="138.40138"
       y1="-6.9475412"
       x2="142.58374"
       y2="-3.2718809"
       gradientUnits="userSpaceOnUse"
       gradientTransform="matrix(1.0338691,0,0,1.0338691,10.933873,15.948244)" />
    <linearGradient
       inkscape:collect="always"
       xlink:href="#linearGradient12769"
       id="linearGradient12771-9"
       x1="94.156822"
       y1="101.64893"
       x2="95.380966"
       y2="117.55817"
       gradientUnits="userSpaceOnUse"
       gradientTransform="matrix(1.0338691,0,0,1.0338691,74.840685,18.513337)" />
    <linearGradient
       inkscape:collect="always"
       xlink:href="#linearGradient12777"
       id="linearGradient12779-8"
       x1="138.40138"
       y1="-6.9475412"
       x2="142.58374"
       y2="-3.2718809"
       gradientUnits="userSpaceOnUse"
       gradientTransform="matrix(1.0338691,0,0,1.0338691,61.31453,-46.737521)" />
  </defs>
  <sodipodi:namedview
     id="base"
     pagecolor="#ffffff"
     bordercolor="#666666"
     borderopacity="1.0"
     inkscape:pageopacity="0.0"
     inkscape:pageshadow="2"
     inkscape:zoom="0.49497475"
     inkscape:cx="569.38058"
     inkscape:cy="613.46158"
     inkscape:document-units="mm"
     inkscape:current-layer="layer1"
     inkscape:document-rotation="0"
     showgrid="false"
     units="px"
     inkscape:window-width="1920"
     inkscape:window-height="1008"
     inkscape:window-x="0"
     inkscape:window-y="28"
     inkscape:window-maximized="1"
     inkscape:snap-others="true"
     inkscape:object-nodes="true"
     inkscape:snap-nodes="true"
     inkscape:snap-global="true" />
  <metadata
     id="metadata5">
    <rdf:RDF>
      <cc:Work
         rdf:about="">
        <dc:format>image/svg+xml</dc:format>
        <dc:type
           rdf:resource="http://purl.org/dc/dcmitype/StillImage" />
        <dc:title></dc:title>
      </cc:Work>
    </rdf:RDF>
  </metadata>
  <g
     inkscape:label="Layer 1"
     inkscape:groupmode="layer"
     id="layer1">
    <path
       id="path976-7"
       style="fill:#8a8a8a;fill-opacity:1;stroke:#000000;stroke-width:5.44009;stroke-linecap:butt;stroke-linejoin:miter;stroke-miterlimit:4;stroke-dasharray:none;stroke-opacity:1"
       d="m 22.607632,37.615691 c -0.450084,0.06392 -1.062027,0.0023 -1.399359,0.323084 0.672641,1.299781 1.994882,2.113566 3.094879,3.031036 5.814956,4.313852 11.957548,8.159675 17.966949,12.192106 3.515897,2.384633 7.144333,4.634137 10.404546,7.368515 1.178508,1.032089 2.502871,2.51831 2.011199,4.216248 -0.635136,1.914752 -2.267658,3.261659 -3.616297,4.679685 -4.385314,4.285582 -9.267794,8.080053 -13.24727,12.76889 -1.341279,1.710269 -2.838923,3.514296 -3.175725,5.728671 -0.109707,1.561324 1.682892,2.182909 2.182608,3.50091 0.743541,1.78951 0.07022,3.764845 -0.388634,5.53946 -1.244952,4.116414 -2.673559,8.213714 -4.893563,11.919744 -3.640251,6.16657 -7.941378,11.9088 -12.141635,17.69771 -1.660716,2.33143 -3.497411,4.54604 -5.022278,6.96929 -0.530284,0.61719 0.451751,0.74037 0.841248,0.96898 2.12279,0.82807 4.143895,2.46797 4.587455,4.81058 0.577525,2.86349 -0.610561,5.68785 -1.614641,8.3127 -2.825569,6.77483 -6.497474,13.19734 -8.7591071,20.20614 -1.4433661,4.32221 -2.5712135,8.67793 -3.4267996,13.13897 -0.2547507,1.70617 1.1827317,2.95874 2.0132164,4.27077 4.5260543,6.12441 8.9504163,12.35893 14.1248363,17.96305 4.033414,4.23513 8.523094,7.98641 12.89711,11.84349 6.865395,5.89787 14.604528,11.18343 23.324653,13.76539 8.214124,2.42052 16.795157,2.94104 25.309602,3.19853 4.519876,0.16662 9.049746,0.002 13.560454,0.38135 12.112001,0.74898 24.223981,1.53186 36.336031,2.25968 13.83001,-0.82398 27.65838,-1.70153 41.48942,-2.49209 8.7273,-0.0953 17.52076,-0.15063 26.12783,-1.44127 6.00711,-0.89243 11.86375,-2.55375 17.25312,-5.3944 7.72074,-3.96394 14.28121,-9.74112 20.69603,-15.50028 4.06994,-3.53833 7.91132,-7.35198 11.25915,-11.58773 3.89049,-4.87756 7.61762,-9.88682 11.22459,-14.97662 0.74967,-0.94948 0.75136,-2.20684 0.43085,-3.3219 -1.48504,-7.09918 -3.59041,-14.13349 -6.68802,-20.75049 -2.15664,-4.82148 -4.73426,-9.47579 -6.38207,-14.50796 -0.80992,-2.41377 -1.19236,-5.33886 0.40472,-7.52656 1.07758,-1.56358 2.87799,-2.32177 4.54309,-3.07861 0.25594,-0.41691 -0.39024,-0.95306 -0.57145,-1.36099 -5.37681,-7.42178 -10.99933,-14.68421 -15.8439,-22.4739 -2.15008,-3.43997 -3.81097,-7.16673 -4.99133,-11.045517 -0.68336,-2.238261 -1.63974,-4.539769 -1.36969,-6.923371 0.15311,-1.484651 1.57003,-2.265256 2.28476,-3.43417 0.51011,-1.36921 -0.37998,-2.758053 -1.02175,-3.927492 -2.95005,-4.601806 -7.25952,-8.077186 -11.21678,-11.765259 -2.39572,-2.246985 -4.97616,-4.35353 -6.95064,-6.999869 -0.84309,-1.092533 -1.10423,-2.695929 -0.25601,-3.863852 1.44245,-2.048656 3.64696,-3.378887 5.63253,-4.840337 7.92639,-5.518582 16.18733,-10.548574 23.99586,-16.237904 1.19508,-0.975387 2.57201,-1.845106 3.39037,-3.184399 0.096,-0.354136 -0.57869,-0.292059 -0.79963,-0.375585 -3.25029,-0.192097 -6.5296,0.392549 -9.70465,0.880405 -6.43811,1.156745 -12.81752,2.724635 -18.761,5.536949 -4.57879,2.133915 -8.68243,5.109803 -12.70334,8.133547 -0.84996,0.525711 -1.83598,1.460599 -2.90372,1.029831 -0.97134,-0.74476 -0.65194,-2.150718 -0.74108,-3.218726 -0.0504,-2.252631 0.12977,-4.507077 -0.51168,-6.666403 -0.0678,-0.525022 -0.56766,-0.778188 -0.94689,-0.348934 -2.00477,1.619429 -3.72129,3.605014 -5.94005,4.959715 -2.56348,1.701962 -5.70625,2.438212 -8.76165,2.106105 -5.14175,-0.511277 -10.02138,-2.33872 -14.95879,-3.747776 -5.45605,-1.669626 -11.08234,-2.799744 -16.78118,-3.168291 -6.55241,-0.503715 -13.21182,-0.240143 -19.80551,-0.114225 -10.53934,-0.296202 -21.21177,-0.585254 -31.49179,2.112905 -5.966629,1.468097 -11.717038,3.793586 -17.803305,4.759883 -3.028959,0.483364 -6.255581,0.238449 -8.978389,-1.269596 -2.701963,-1.355414 -4.743668,-3.635783 -7.012255,-5.567671 -0.311574,-0.310566 -0.888764,-0.482187 -0.988227,0.123949 -0.690229,2.015659 -0.515338,4.129524 -0.574692,6.247269 -0.06892,1.15193 0.182413,2.426137 -0.399816,3.474769 -0.684175,0.900556 -1.875727,0.209617 -2.600044,-0.275476 -3.341497,-2.366899 -6.556577,-4.939625 -10.161541,-6.91056 -5.922675,-3.404504 -12.536135,-5.320248 -19.168674,-6.6754 -3.912145,-0.746746 -7.895071,-1.463067 -11.912255,-1.446693 z" />
    <path
       id="path976-7-9"
       style="fill:#e9e9e9;fill-opacity:1;stroke:none;stroke-width:4.35866;stroke-linecap:butt;stroke-linejoin:miter;stroke-miterlimit:4;stroke-dasharray:none;stroke-opacity:1"
       d="m 62.165656,96.672229 c 1.006991,0.775357 4.772563,11.892321 1.510272,13.597851 -3.747086,3.21956 -24.544644,28.86933 -28.038006,33.65973 -1.419017,1.75147 -4.888059,5.77873 -6.190999,7.59919 -0.45311,0.46365 2.147824,3.9691 2.526829,5.72901 0.493473,2.15119 -3.071155,4.82014 -3.929103,6.79205 -2.414343,5.08958 3.915421,7.53403 1.98294,12.79938 -1.504496,22.34924 4.114794,28.41127 8.536142,32.62136 3.446399,3.18164 6.623034,5.62898 11.082561,7.87416 7.062215,3.27301 9.935683,3.82351 17.386706,5.7632 7.018661,1.81842 14.350832,2.20946 21.626107,2.4029 3.862067,0.12518 7.732672,0.002 11.586885,0.28649 10.34926,0.56269 20.69849,1.1508 31.0478,1.69759 11.81722,-0.61901 5.78162,-144.167216 0.14756,-144.072609 -9.00546,-0.222522 -18.16841,-0.327918 -26.95231,1.699075 -5.098274,1.102908 -10.011759,2.849933 -15.212244,3.575862 -2.588132,0.363129 -5.345161,0.179135 -7.671699,-0.953783 -2.308725,-1.018257 -22.225172,6.874342 -19.439441,8.928544 z"
       sodipodi:nodetypes="cccccccccccccccccc" />
    <path
       id="path976-7-9-3"
       style="fill:#e9e9e9;fill-opacity:1;stroke:none;stroke-width:4.35858;stroke-linecap:butt;stroke-linejoin:miter;stroke-miterlimit:4;stroke-dasharray:none;stroke-opacity:1"
       d="m 204.61781,96.672224 c -1.00699,0.775358 -4.77256,11.892316 -1.51026,13.597856 3.74708,3.21956 24.54464,28.86933 28.038,33.65973 1.41901,1.75147 4.88806,5.77873 6.19099,7.59919 0.45312,0.46365 -2.14782,3.9691 -2.52683,5.72901 -0.49346,2.15119 3.07117,4.82014 3.92911,6.79205 2.41434,5.08958 -3.91541,7.53403 -1.98294,12.79938 1.50449,22.34924 -4.11478,28.41127 -8.53614,32.62136 -3.4464,3.18164 -6.62304,5.62898 -11.08256,7.87416 -7.06222,3.27301 -9.93569,3.82351 -17.38671,5.7632 -7.01869,1.81842 -14.3509,2.20946 -21.62623,2.4029 -3.86208,0.12518 -7.7327,0.002 -11.58696,0.28649 -10.34934,0.56269 -20.69863,1.1508 -31.04798,1.69759 -11.8173,-0.61901 -8.52162,-144.516468 -2.88752,-144.421861 9.0055,-0.222523 20.90847,0.02133 29.6924,2.048322 5.09832,1.102909 10.01186,2.849933 15.21238,3.575863 2.58814,0.363128 5.34518,0.179134 7.67173,-0.953783 2.30874,-1.018259 22.22526,6.874342 19.43952,8.928543 z"
       sodipodi:nodetypes="cccccccccccccccccc" />
    <path
       style="fill:#000000;stroke:#000000;stroke-width:0.273544px;stroke-linecap:butt;stroke-linejoin:miter;stroke-opacity:1"
       d="m 132.08085,204.219 c -8.08701,-0.71977 -16.17343,-1.43949 -22.1603,-3.24875 -5.98688,-1.80927 -9.87316,-4.70808 -11.620576,-9.9328 -1.747417,-5.22472 -1.355751,-12.7759 3.650916,-18.01602 5.00666,-5.24011 14.62799,-8.16887 18.68869,-14.34671 4.06071,-6.17783 2.56086,-15.60487 1.01017,-24.17909 -1.55069,-8.57422 -3.15204,-16.29457 -5.43562,-23.22993 -2.28358,-6.93535 -5.24918,-13.084798 -7.19235,-13.084216 -1.94317,5.82e-4 -2.86347,6.151226 -3.78383,12.302196 0,0 0,0 0,0 -4.11081,-3.87579 -8.221232,-7.75122 -14.754647,-9.85172 -6.533415,-2.100501 -15.489049,-2.425348 -16.943179,-0.850549 -1.45413,1.574799 4.593239,5.049149 2.306677,10.629769 -2.286561,5.58061 -12.906531,13.26744 -20.957723,21.55733 -8.051193,8.28989 -13.533375,17.18263 -16.989865,24.00084 -3.45649,6.8182 -4.887222,11.56166 -4.022414,14.12128 0.864807,2.55961 4.024611,2.93549 4.125903,5.78933 0.101293,2.85384 -2.855861,8.18575 -3.384001,12.70733 -0.528141,4.52158 1.372274,8.2335 3.420935,12.23505 2.04866,4.00154 4.245538,8.29266 11.557794,11.77553 7.312255,3.48286 19.73629,6.15672 25.289263,5.92987 5.552973,-0.22684 4.231473,-3.35451 4.779684,-5.65675 0.548211,-2.30224 2.966336,-3.77775 12.04055,-3.8573 9.074213,-0.0796 24.805823,1.23685 40.536453,2.55318"
       id="path863"
       inkscape:path-effect="#path-effect865"
       inkscape:original-d="m 132.08085,204.219 c -8.08703,-0.71952 -16.17345,-1.43924 -24.26103,-2.15931 -3.88618,-2.89866 -7.77247,-5.79746 -11.658894,-8.69646 0.391918,-7.55049 0.783577,-15.10167 1.174973,-22.65305 9.621751,-2.92853 19.243081,-5.85729 28.864221,-8.78635 -1.49961,-9.42698 -2.99945,-18.85402 -4.49965,-28.28181 -1.6012,-7.72065 -3.20256,-15.441 -4.80429,-23.16216 -2.96551,-6.14957 -5.9311,-12.299019 -8.89716,-18.449101 -0.9201,6.151353 -2.76107,18.452921 -2.76107,18.452921 v 0 c 0,0 -8.221233,-7.75122 -12.332425,-11.627375 -8.955647,-0.324584 -17.91128,-0.649431 -26.86707,-0.974545 6.047493,3.47453 12.094863,6.94888 18.142028,10.42301 -10.620014,7.68734 -21.23998,15.37417 -31.860357,23.0608 -5.481921,8.89303 -10.964101,17.78577 -16.446606,26.67831 -1.430472,4.74377 -2.861202,9.48723 -4.292213,14.23043 3.160271,0.37617 6.320074,0.75205 9.479793,1.12767 -2.956783,5.332 -5.913935,10.66391 -8.870997,15.99489 1.900563,3.71195 3.8009,7.42391 5.701274,11.13582 2.196946,4.29118 4.393907,8.58225 6.590676,12.87342 12.427588,2.67483 24.851623,5.34868 37.279393,8.02312 -1.321648,-3.12839 -2.643148,-6.25606 -3.96526,-9.38481 2.418599,-1.47535 4.836722,-2.95086 7.254515,-4.4266 15.730419,1.31656 31.462029,2.63297 47.192679,3.94905"
       sodipodi:nodetypes="cccccccccccccccccccccccc" />
    <path
       id="path897"
       style="fill:#0d0808;fill-opacity:1;stroke:#000000;stroke-width:0.273544px;stroke-linecap:butt;stroke-linejoin:miter;stroke-opacity:1"
       d="m 130.19752,179.83797 c -2.39919,-0.0282 -4.7619,0.11234 -6.97966,0.92694 -2.95701,1.08614 -5.65581,3.37086 -6.48065,5.95334 -0.82485,2.58247 0.22424,5.46228 2.24872,7.26923 2.02449,1.80695 5.02412,2.54132 6.51965,4.29123 1.49555,1.7499 1.48677,4.51472 2.33208,5.94745 0.84531,1.43274 2.54444,1.53375 4.24315,1.63433 2.20445,-0.1006 4.40851,-0.20161 5.50615,-1.63433 1.09763,-1.43272 1.08922,-4.19755 2.58479,-5.94745 1.49554,-1.74991 4.49514,-2.48428 6.51966,-4.29123 2.02448,-1.80695 3.07353,-4.68696 2.13331,-7.22116 -0.94021,-2.53418 -3.86931,-4.7224 -6.90379,-5.80854 -3.03447,-1.08614 -6.17559,-1.07013 -9.31601,-1.05411 -0.80374,-0.0281 -1.60768,-0.0563 -2.4074,-0.0658 z" />
    <path
       style="fill:#ffffff;stroke:#000000;stroke-width:0.324228px;stroke-linecap:butt;stroke-linejoin:miter;stroke-opacity:1"
       d="m 77.393025,126.71259 c 0.667718,-1.84927 2.980497,-2.69639 5.853895,-3.535 2.873399,-0.83861 6.306699,-1.66859 9.743555,-1.55028 3.436856,0.11831 6.875705,1.18469 9.344935,2.50199 2.46922,1.31731 3.96819,2.88507 4.69036,4.38474 0.72216,1.49967 0.66782,2.93124 0.1542,4.27597 -0.51363,1.34472 -1.48654,2.60276 -3.48102,4.214 -1.99449,1.61123 -5.010507,3.5756 -8.589026,4.26938 -3.578518,0.69378 -7.719371,0.11678 -10.551713,-1.26296 -2.832343,-1.37974 -4.355165,-3.56183 -5.605505,-6.07934 -1.25034,-2.51752 -2.2274,-5.36924 -1.559681,-7.2185 z"
       id="path889"
       inkscape:path-effect="#path-effect891"
       inkscape:original-d="m 75.748308,125.71031 c 2.312538,-0.84671 4.625319,-1.69382 6.937712,-2.54112 3.434363,-0.82995 6.867664,-1.65992 10.301389,-2.49028 3.439895,1.0668 6.878746,2.13317 10.317881,3.19955 1.49942,1.56807 2.99839,3.13583 4.497,4.70337 -0.054,1.43189 -0.10829,2.86347 -0.16304,4.29487 -0.97255,1.25831 -1.94546,2.51635 -2.91877,3.77417 -3.01579,1.96472 -6.031818,3.92908 -9.048321,5.89329 -4.140778,-0.57681 -8.281624,-1.15386 -12.423275,-1.7311 -1.522883,-2.18246 -3.045707,-4.36455 -4.569408,-6.54762 -0.97687,-2.85195 -1.953932,-5.70367 -2.931168,-8.55513 z"
       sodipodi:nodetypes="ccccccccccc" />
    <ellipse
       style="fill:url(#linearGradient12771);fill-opacity:1;stroke:#000000;stroke-width:0.375964;stroke-linejoin:round;stroke-miterlimit:4;stroke-dasharray:none;stroke-opacity:1;paint-order:fill markers stroke;stop-color:#000000"
       id="path12654-8"
       cx="92.651428"
       cy="131.62071"
       rx="8.2425451"
       ry="8.0368309" />
    <ellipse
       style="fill:#000000;fill-opacity:1;stroke:#000000;stroke-width:0.3208;stroke-linejoin:round;stroke-miterlimit:4;stroke-dasharray:none;stroke-opacity:1;paint-order:fill markers stroke;stop-color:#000000"
       id="path12654"
       cx="92.416359"
       cy="131.59926"
       rx="6.9408708"
       ry="6.9487514" />
    <path
       style="fill:none;stroke:#000000;stroke-width:5.4709;stroke-linecap:butt;stroke-linejoin:miter;stroke-miterlimit:4;stroke-dasharray:none;stroke-opacity:1"
       d="m 21.208273,37.938775 c 0.467119,7.376868 0.934209,14.753296 3.17403,23.084344 2.239821,8.331047 6.252067,17.615997 10.264251,26.900807"
       id="path980"
       inkscape:original-d="m 21.208273,37.938775 c 0.467375,7.376852 0.934464,14.75328 1.401301,22.129735 4.01268,9.2856 8.024926,18.57055 12.03698,27.855416"
       inkscape:path-effect="#path-effect982"
       sodipodi:nodetypes="ccc" />
    <path
       style="fill:none;stroke:#000000;stroke-width:5.4709;stroke-linecap:butt;stroke-linejoin:miter;stroke-miterlimit:4;stroke-dasharray:none;stroke-opacity:1"
       d="m 247.01779,38.0357 c -0.52764,7.252688 -1.05525,14.505053 -3.22055,22.357038 -2.16531,7.851985 -5.96802,16.303244 -9.77066,24.754348"
       id="path980-5"
       inkscape:original-d="m 247.01779,38.0357 c -0.52734,7.25271 -1.05496,14.505074 -1.58284,21.757091 -3.80314,8.451876 -7.60585,16.903136 -11.40837,25.354295"
       inkscape:path-effect="#path-effect1040"
       sodipodi:nodetypes="ccc" />
    <path
       style="fill:#000000;stroke:#000000;stroke-width:0.273544px;stroke-linecap:butt;stroke-linejoin:miter;stroke-opacity:1"
       d="m 132.14282,204.219 c 8.08706,-0.71977 16.17352,-1.43949 22.16043,-3.24875 5.98691,-1.80926 9.87322,-4.70806 12.25419,-10.27244 2.38096,-5.56437 3.25645,-13.79493 -1.28562,-19.54379 -4.54207,-5.74887 -14.50138,-9.01572 -18.61986,-14.85388 -4.11847,-5.83816 -2.39619,-14.24777 -1.31008,-22.31326 1.08611,-8.06549 1.53588,-15.78583 3.24361,-22.72118 1.70773,-6.93535 4.67334,-13.084801 6.61652,-13.084214 1.94318,5.87e-4 2.86349,6.151224 3.78386,12.302204 0,0 0,0 0,0 4.11085,-3.87579 8.22131,-7.75122 14.7548,-9.85172 6.53348,-2.100509 15.48914,-2.425355 16.94327,-0.850558 1.45412,1.574798 -4.59325,5.049148 -2.30668,10.629778 2.28656,5.58063 12.90652,13.26744 20.95772,21.55733 8.05119,8.28989 13.53338,17.18262 16.98987,24.00083 3.4565,6.81821 4.88723,11.56167 4.02242,14.12129 -0.86481,2.55961 -4.02462,2.93549 -4.12591,5.78932 -0.10129,2.85384 2.85586,8.18576 3.384,12.70734 0.52815,4.52157 -1.37228,8.2335 -3.42093,12.23504 -2.04866,4.00154 -4.24554,8.29266 -11.55779,11.77553 -7.31225,3.48286 -19.73629,6.15671 -25.28927,5.92987 -5.55298,-0.22684 -4.23148,-3.35451 -4.77969,-5.65675 -0.54821,-2.30224 -2.96636,-3.77775 -12.04067,-3.8573 -9.07431,-0.0795 -24.80601,1.23685 -40.53673,2.55318"
       id="path863-6"
       inkscape:path-effect="#path-effect1069"
       inkscape:original-d="m 132.14282,204.219 c 8.08708,-0.71952 16.17354,-1.43924 24.26117,-2.15931 3.8862,-2.89865 7.77252,-5.79745 11.659,-8.69646 0.87517,-8.22982 1.75066,-16.46038 2.62641,-24.69111 -9.95976,-3.26663 -19.91907,-6.53349 -29.87817,-9.80064 1.72205,-8.40954 3.44434,-16.81915 5.16698,-25.22946 0.44953,-7.72064 0.89929,-15.44099 1.34937,-23.16215 2.96551,-6.14958 5.93114,-12.299025 8.89719,-18.449107 0.92013,6.151353 2.7611,18.452927 2.7611,18.452927 v 0 c 0,0 8.22131,-7.75122 12.33255,-11.627381 8.95574,-0.324584 17.9114,-0.649431 26.86718,-0.974545 -6.04749,3.474526 -12.09486,6.948876 -18.14205,10.423016 10.62005,7.68734 21.24001,15.37416 31.86039,23.06081 5.48192,8.89301 10.9641,17.78575 16.44661,26.6783 1.43047,4.74377 2.8612,9.48723 4.29221,14.23043 -3.16027,0.37617 -6.32008,0.75205 -9.47979,1.12767 2.95677,5.33199 5.91393,10.66391 8.87099,15.99489 -1.90056,3.71194 -3.8009,7.42391 -5.70128,11.13582 -2.19694,4.29117 -4.3939,8.58224 -6.59066,12.87341 -12.42759,2.67483 -24.85163,5.34868 -37.27942,8.02312 1.32165,-3.12839 2.64316,-6.25606 3.96528,-9.38481 -2.41861,-1.47535 -4.83676,-2.95086 -7.25456,-4.4266 -15.7306,1.31656 -31.4623,2.63297 -47.19304,3.94905"
       sodipodi:nodetypes="cccccccccccccccccccccccc" />
    <path
       style="fill:none;fill-opacity:1;stroke:#000000;stroke-width:6.96746;stroke-linecap:butt;stroke-linejoin:miter;stroke-miterlimit:4;stroke-dasharray:none;stroke-opacity:1"
       d="m 106.42972,208.61756 c 0.93815,2.77922 1.87615,5.55801 4.43742,8.25364 2.56128,2.69562 6.74541,5.30817 10.64336,6.80496 3.89796,1.49678 7.50954,1.87795 11.12086,2.2591"
       id="path938"
       inkscape:original-d="m 106.42972,208.61756 c 0.93832,2.77916 1.87633,5.55795 2.814,8.33636 4.18462,2.61302 8.36876,5.22557 12.55263,7.83779 3.61207,0.38157 7.22366,0.76273 10.83501,1.14355"
       inkscape:path-effect="#path-effect940" />
    <path
       style="fill:none;fill-opacity:1;stroke:#000000;stroke-width:6.96745;stroke-linecap:butt;stroke-linejoin:miter;stroke-miterlimit:4;stroke-dasharray:none;stroke-opacity:1"
       d="m 158.14506,208.61757 c -0.93815,2.77922 -1.87615,5.55801 -4.43743,8.25363 -2.56127,2.69563 -6.7454,5.30818 -10.64336,6.80496 -3.89795,1.49679 -7.50953,1.87796 -11.12085,2.25911"
       id="path938-9"
       inkscape:original-d="m 158.14506,208.61757 c -0.93833,2.77916 -1.87633,5.55795 -2.81401,8.33636 -4.18461,2.61302 -8.36875,5.22557 -12.55262,7.83779 -3.61207,0.38157 -7.22366,0.76273 -10.83501,1.14355"
       inkscape:path-effect="#path-effect1125" />
    <path
       style="fill:#ffffff;stroke:#000000;stroke-width:0.324227px;stroke-linecap:butt;stroke-linejoin:miter;stroke-opacity:1"
       d="m 189.40826,126.71259 c -0.66773,-1.84927 -2.98051,-2.69639 -5.85393,-3.535 -2.87342,-0.83862 -6.30673,-1.66859 -9.74361,-1.55028 -3.43688,0.11831 -6.87575,1.18469 -9.34499,2.502 -2.46923,1.3173 -3.9682,2.88506 -4.69036,4.38473 -0.72217,1.49967 -0.66783,2.93124 -0.1542,4.27597 0.51362,1.34472 1.48653,2.60277 3.48102,4.214 1.99449,1.61123 5.01052,3.5756 8.58906,4.26938 3.57855,0.69378 7.71942,0.11678 10.55178,-1.26296 2.83236,-1.37974 4.35519,-3.56183 5.60554,-6.07935 1.25034,-2.51751 2.22741,-5.36923 1.55969,-7.21849 z"
       id="path889-2"
       inkscape:path-effect="#path-effect1164"
       inkscape:original-d="m 191.05298,125.71031 c -2.31255,-0.84671 -4.62534,-1.69382 -6.93774,-2.54112 -3.43439,-0.82995 -6.8677,-1.65992 -10.30145,-2.49028 -3.43992,1.0668 -6.8788,2.13317 -10.31795,3.19955 -1.49942,1.56807 -2.99839,3.13583 -4.49699,4.70337 0.054,1.43189 0.10829,2.86347 0.16303,4.29487 0.97255,1.25831 1.94547,2.51635 2.91877,3.77417 3.0158,1.96472 6.03184,3.92908 9.04837,5.89329 4.1408,-0.57681 8.28167,-1.15386 12.42334,-1.7311 1.5229,-2.18246 3.04574,-4.36455 4.56944,-6.54762 0.97687,-2.85195 1.95394,-5.70367 2.93118,-8.55513 z"
       sodipodi:nodetypes="ccccccccccc" />
    <ellipse
       style="fill:url(#linearGradient12779);fill-opacity:1;stroke:#000000;stroke-width:0.156028;stroke-linejoin:round;stroke-miterlimit:4;stroke-dasharray:none;stroke-opacity:1;paint-order:fill markers stroke;stop-color:#000000"
       id="path12654-9"
       cx="156.30197"
       cy="10.461805"
       rx="2.9487276"
       ry="3.8692286"
       transform="rotate(51.211106)" />
    <ellipse
       style="fill:url(#linearGradient12771-9);fill-opacity:1;stroke:#000000;stroke-width:0.375965;stroke-linejoin:round;stroke-miterlimit:4;stroke-dasharray:none;stroke-opacity:1;paint-order:fill markers stroke;stop-color:#000000"
       id="path12654-8-3"
       cx="173.07295"
       cy="131.62071"
       rx="8.2425451"
       ry="8.0368319" />
    <ellipse
       style="fill:#000000;fill-opacity:1;stroke:#000000;stroke-width:0.320799;stroke-linejoin:round;stroke-miterlimit:4;stroke-dasharray:none;stroke-opacity:1;paint-order:fill markers stroke;stop-color:#000000"
       id="path12654-6"
       cx="172.83792"
       cy="131.59926"
       rx="6.9408708"
       ry="6.9487519" />
    <ellipse
       style="fill:url(#linearGradient12779-8);fill-opacity:1;stroke:#000000;stroke-width:0.156028;stroke-linejoin:round;stroke-miterlimit:4;stroke-dasharray:none;stroke-opacity:1;paint-order:fill markers stroke;stop-color:#000000"
       id="path12654-9-1"
       cx="206.68251"
       cy="-52.223995"
       rx="2.9487276"
       ry="3.8692286"
       transform="rotate(51.211106)" />
    <path
       style="fill:none;stroke:#d5d5d5;stroke-width:5.4709;stroke-linecap:butt;stroke-linejoin:miter;stroke-miterlimit:4;stroke-dasharray:none;stroke-opacity:1"
       d="m 74.118671,121.61407 c 3.5952,-2.83232 7.190385,-5.66463 12.340901,-6.18979 5.150515,-0.52516 11.855725,1.25666 18.560678,3.0384"
       id="path12885"
       inkscape:original-d="m 74.118671,121.61407 c 3.595493,-2.83195 7.190679,-5.66426 10.785554,-8.49693 6.705794,1.78224 13.411005,3.56405 20.116025,5.34554"
       inkscape:path-effect="#path-effect12887" />
    <path
       style="fill:none;stroke:#d5d5d5;stroke-width:5.4709;stroke-linecap:butt;stroke-linejoin:miter;stroke-miterlimit:4;stroke-dasharray:none;stroke-opacity:1"
       d="m 191.56479,121.61407 c -3.59521,-2.83232 -7.1904,-5.66463 -12.34094,-6.18979 -5.15054,-0.52516 -11.85581,1.25665 -18.56082,3.03839"
       id="path12885-2"
       inkscape:original-d="m 191.56479,121.61407 c -3.5955,-2.83195 -7.19068,-5.66427 -10.78558,-8.49693 -6.70583,1.78224 -13.4111,3.56405 -20.11618,5.34553"
       inkscape:path-effect="#path-effect12906" />
    <ellipse
       style="fill:#bebebe;fill-opacity:1;stroke:none;stroke-width:4.53441;stroke-linejoin:round;stroke-miterlimit:4;stroke-dasharray:none;stroke-opacity:1;paint-order:fill markers stroke;stop-color:#000000"
       id="path12940"
       cx="132.7964"
       cy="187.57965"
       rx="8.4303646"
       ry="4.7008014" />
    <path
       style="fill:#e9e9e9;fill-opacity:1;stroke:none;stroke-width:4.40292;stroke-linejoin:round;stroke-miterlimit:4;stroke-dasharray:none;stroke-opacity:1;paint-order:fill markers stroke;stop-color:#000000"
       d="m 34.549458,80.975546 c -0.139118,-0.359875 -0.897652,-2.208629 -1.68563,-4.10834 -5.280566,-12.730769 -7.013813,-19.12714 -8.412696,-31.046177 -0.190206,-1.620646 -0.244769,-1.631684 2.936521,0.594035 1.302967,0.91159 6.392834,4.326575 11.310818,7.588854 9.073655,6.01889 12.725376,8.666714 13.215409,9.58235 0.428831,0.80128 -0.810498,2.241973 -5.976925,6.948037 -5.097818,4.643566 -8.206446,7.680297 -9.981299,9.750438 -1.130759,1.318889 -1.158185,1.332358 -1.406198,0.690803 z"
       id="path12972" />
    <path
       style="fill:#e9e9e9;fill-opacity:1;stroke:none;stroke-width:4.40292;stroke-linejoin:round;stroke-miterlimit:4;stroke-dasharray:none;stroke-opacity:1;paint-order:fill markers stroke;stop-color:#000000"
       d="m 231.20591,79.045843 c -0.80832,-0.929428 -4.0702,-4.069134 -7.24863,-6.977123 -6.50451,-5.951057 -8.04883,-7.668628 -7.61833,-8.47302 0.4915,-0.91838 4.099,-3.540449 12.84465,-9.336002 4.71127,-3.122067 9.96713,-6.653706 11.67966,-7.848086 4.05756,-2.829906 4.04543,-2.825775 3.80158,-1.293902 -1.14703,7.205531 -2.75397,13.566007 -4.98591,19.734886 -1.63688,4.524205 -6.48705,15.883115 -6.78198,15.883115 -0.12175,0 -0.88273,-0.760441 -1.69104,-1.689868 z"
       id="path12974" />
    <path
       id="path12980-1-9-8"
       style="fill:none;stroke:#6b6b6b;stroke-width:2.21188;stroke-linecap:butt;stroke-linejoin:miter;stroke-miterlimit:4;stroke-dasharray:none;stroke-opacity:1"
       d="m 153.27923,193.64324 c 10.07216,1.42843 20.14463,2.85689 28.47131,6.38657 8.32667,3.52968 14.90712,9.16041 21.48785,14.79138 m -47.72863,-26.91247 c 12.55599,-0.12359 25.11232,-0.24719 36.16133,3.02272 11.04899,3.26991 20.59006,9.93316 30.13145,16.59665 m -65.231,-25.53031 c 14.25337,-1.84983 28.50717,-3.6997 41.62601,-0.97291 13.11884,2.72682 25.10197,10.03013 37.08543,17.33365 m -122.03993,-4.71528 c -10.07211,1.42843 -20.144494,2.85689 -28.471123,6.38657 -8.326629,3.52967 -14.907047,9.16041 -21.487737,14.79138 m 47.72833,-26.91247 c -12.555895,-0.12359 -25.112148,-0.24719 -36.16109,3.02272 -11.04894,3.26991 -20.589944,9.93316 -30.131284,16.59665 m 65.230604,-25.53031 c -14.253272,-1.84983 -28.506977,-3.6997 -41.62575,-0.97291 -13.118771,2.72681 -25.101844,10.03011 -37.085287,17.33365" />
  </g>
</svg>
